# AST/ASF file generated using VICON BodyLanguage
# -----------------------------------------------
:version 1.10
:name VICON
:units
  mass 1.0
  length 0.45
  angle deg
:documentation
   .ast/.asf automatically generated from VICON data using
   VICON BodyBuilder and BodyLanguage model FoxedUp or BRILLIANT.MOD
:root
   order TX TY TZ RX RY RZ
   axis XYZ
   position 0 0 0  
   orientation 0 0 0 
:bonedata
  begin
     id 1 
     name lhipjoint
     direction 0.621036 -0.695554 0.361275 
     length 2.46325 
     axis 0 0 0  XYZ
  end
  begin
     id 2 
     name lfemur
     direction 0.34202 -0.939693 0  
     length 6.54784  
     axis 0 0 20  XYZ
    dof rx ry rz
    limits (-160.0 20.0)
           (-70.0 70.0)
           (-60.0 70.0)
  end
  begin
     id 3 
     name ltibia
     direction 0.34202 -0.939693 0   
     length 7.84737   
     axis 0 0 20   XYZ
    dof rx
    limits (-10.0 170.0)
  end
  begin
     id 4 
     name lfoot
     direction 0.0790693 -0.217241 0.97291   
     length 2.59747   
     axis -90 7.62852e-016 20   XYZ
    dof rx rz
    limits (-45.0 90.0)
           (-70.0 20.0)
  end
  begin
     id 5 
     name ltoes
     direction 1.53572e-011 -4.21898e-011 1   
     length 1.29919   
     axis -90 7.62852e-016 20   XYZ
    dof rx
    limits (-90.0 20.0)
  end
  begin
     id 6 
     name rhipjoint
     direction -0.602353 -0.708375 0.367935   
     length 2.41867  
     axis 0 0 0  XYZ 
  end
  begin
     id 7 
     name rfemur
     direction -0.34202 -0.939693 0   
     length 6.92065   
     axis 0 0 -20   XYZ
    dof rx ry rz
    limits (-160.0 20.0)
           (-70.0 70.0)
           (-70.0 60.0)
  end
  begin
     id 8 
     name rtibia
     direction -0.34202 -0.939693 0   
     length 7.88883   
     axis 0 0 -20   XYZ
    dof rx
    limits (-10.0 170.0)
 end
 begin
     id 9 
     name rfoot
     direction -0.0768692 -0.211196 0.974416   
     length 2.43714  
     axis -90 -7.62852e-016 -20   XYZ
    dof rx rz
    limits (-45.0 90.0)
           (-20.0 70.0)
  end
  begin
     id 10 
     name rtoes
     direction -1.53575e-011 -4.21933e-011 1   
     length 1.22113   
     axis -90 -7.62852e-016 -20   XYZ
    dof rx
    limits (-90.0 20.0)
  end
  begin
     id 11 
     name lowerback
     direction 0.0197937 0.98943 -0.143655   
     length 2.16931   
     axis 0 0 0   XYZ
    dof rx ry rz
    limits (-20.0 45.0)
           (-30.0 30.0)
           (-30.0 30.0)
  end
  begin
     id 12 
     name upperback
     direction -0.00183968 0.999975 0.00684288   
     length 2.17221   
     axis 0 0 0   XYZ
    dof rx ry rz
    limits (-20.0 45.0)
           (-30.0 30.0)
           (-30.0 30.0)
  end
  begin
     id 13 
     name thorax
     direction -0.00950244 0.997208 0.0740685   
     length 2.22549   
     axis 0 0 0   XYZ
    dof rx ry rz
    limits (-20.0 45.0)
           (-30.0 30.0)
           (-30.0 30.0)
  end
  begin
     id 14 
     name lowerneck
     direction 0.0218238 0.996215 0.0841425   
     length 1.77269   
     axis 0 0 0   XYZ
    dof rx ry rz
    limits (-20.0 45.0)
           (-30.0 30.0)
           (-30.0 30.0)
  end
  begin
     id 15 
     name upperneck
     direction -0.00430652 0.994214 -0.107332   
     length 1.76534   
     axis 0 0 0   XYZ
    dof rx ry rz
    limits (-20.0 45.0)
           (-30.0 30.0)
           (-30.0 30.0)
  end
  begin
     id 16
     name head
     direction -0.00328946 0.998959 -0.0454998  
     length 1.82634  
     axis 0 0 0   XYZ
    dof rx ry rz
    limits (-20.0 45.0)
           (-30.0 30.0)
           (-30.0 30.0)
  end
  begin
     id 17 
     name lclavicle
     direction 0.970962 0.239191 0.00450212  
     length 3.84872  
     axis 0 0 0   XYZ
    dof ry rz
    limits (-20.0 10.0)
           (0.0 20.0)
  end
  begin
     id 18 
     name lhumerus
     direction 1 -4.48966e-011 5.74696e-028   
     length 5.22771   
     axis 180 -30 -90   XYZ
    dof rx ry rz
    limits (-60.0 90.0)
           (-90.0 90.0)
           (-90.0 90.0)
  end
  begin
     id 19
     name lradius
     direction 1 -4.4896e-011 4.25109e-027   
     length 3.45251   
     axis 180 -30 -90   XYZ
    dof rx
    limits (-10.0 170.0)
  end
  begin
     id 20
     name lwrist
     direction 1 -4.48971e-011 1.15382e-027   
     length 1.72626   
     axis -5.52449e-016 90 90   XYZ
    dof ry
    limits (-180.0 0.0)
 end
  begin
     id 21 
     name lhand
     direction 1 -4.49034e-011 2.30765e-027   
     length 0.552119   
     axis -1.47248e-015 90 90   XYZ
    dof rx rz
    limits (-90.0 90.0)
           (-45.0 45.0)
  end
  begin
     id 22 
     name lfingers
     direction 1 -4.48951e-011 4.61529e-027   
     length 0.445133   
     axis -2.94495e-015 90 90   XYZ
    dof rx
    limits (0.0 90.0)
  end
  begin
     id 23
     name lthumb
     direction 0.707107 -6.34991e-011 0.707107   
     length 0.639124   
     axis -90 45 2.85299e-015   XYZ
    dof rx rz
    limits (-45.0 45.0)
           (-45.0 45.0)
  end
  begin
     id 24 
     name rclavicle
     direction -0.97424 0.222511 -0.0366699   
     length 3.73439  
     axis 0 0 0   XYZ 
    dof ry rz
    limits (-10.0 20.0)
           (-20.0 0.0)
  end
  begin
     id 25 
     name rhumerus
     direction -1 -4.48956e-011 -4.97258e-028  
     length 5.2398   
     axis 180 30 90   XYZ
    dof rx ry rz
    limits (-90.0 60.0)
           (-90.0 90.0)
           (-90.0 90.0)
  end
  begin
     id 26 
     name rradius
     direction -1 -4.4897e-011 -1.72611e-027   
     length 3.48042   
     axis 180 30 90   XYZ
    dof rx
    limits (-10.0 170.0)
  end
  begin
     id 27 
     name rwrist
     direction -1 -4.48976e-011 1.15382e-027   
     length 1.74021   
     axis -5.52449e-016 -90 -90   XYZ
    dof ry
    limits (-180.0 0.0)
  end
  begin
     id 28
     name rhand
     direction -1 -4.48963e-011 2.30765e-027   
     length 0.618713   
     axis -1.47248e-015 -90 -90   XYZ
    dof rx rz
    limits (-90.0 90.0)
           (-45.0 45.0)
  end
  begin
     id 29
     name rfingers
     direction -1 -4.4888e-011 4.61529e-027   
     length 0.498823   
     axis -2.94495e-015 -90 -90   XYZ
    dof rx
    limits (0.0 90.0)
  end
  begin
     id 30
     name rthumb
     direction -0.707107 -6.34968e-011 0.707107   
     length 0.716213   
     axis -90 -45 -2.85299e-015   XYZ
    dof rx rz
    limits (-45.0 45.0)
           (-45.0 45.0)
  end
:hierarchy
  begin
    root lhipjoint rhipjoint lowerback
    lhipjoint lfemur
    lfemur ltibia
    ltibia lfoot
    lfoot ltoes
    rhipjoint rfemur
    rfemur rtibia
    rtibia rfoot
    rfoot rtoes
    lowerback upperback
    upperback thorax
    thorax lowerneck lclavicle rclavicle
    lowerneck upperneck
    upperneck head
    lclavicle lhumerus
    lhumerus lradius
    lradius lwrist
    lwrist lhand lthumb
    lhand lfingers
    rclavicle rhumerus
    rhumerus rradius
    rradius rwrist
    rwrist rhand rthumb
    rhand rfingers
  end

#!OML:ASF G:\JayActor3\Patient Classification 1\Patient 1\Session 5\male.ASF
:FULLY-SPECIFIED
:DEGREES
54
root -40.903 17.4011 -4.97415 -108.327 85.0114 -141.388
lowerback 19.6315 -1.03711 2.8409
upperback 4.67605 -0.495441 0.173833
thorax -5.94765 -0.158684 -1.32261
lowerneck 3.65973 -0.929541 1.44589
upperneck -15.3911 -0.426637 3.2735
head -5.2274 -0.393922 0.793073
rclavicle 2.74323e-014 2.26615e-014
rhumerus -31.1905 3.36185 -89.7172
rradius 39.1596
rwrist -8.05209
rhand -20.6586 -9.09231
rfingers 7.12502
rthumb 5.70394 -38.9955
lclavicle 2.74323e-014 2.26615e-014
lhumerus -31.0906 -2.55233 86.5791
lradius 31.4795
lwrist 27.9594
lhand -19.2154 11.2243
lfingers 7.12502
lthumb 7.09725 41.0853
rfemur -53.4992 4.70371 20.4996
rtibia 33.4918
rfoot -18.2877 -13.4626
rtoes 17.0324
lfemur -46.7843 10.4728 -23.6072
ltibia 19.5027
lfoot -4.4394 -2.04686
ltoes -6.30299
55
root -40.8953 17.402 -4.97155 -108.515 84.9955 -141.592
lowerback 19.6713 -1.03302 2.84496
upperback 4.67677 -0.487118 0.176237
thorax -5.96754 -0.154675 -1.32423
lowerneck 3.6493 -0.919376 1.44602
upperneck -15.3736 -0.41624 3.25644
head -5.22034 -0.387457 0.787022
rclavicle -2.78299e-015 -2.38542e-014
rhumerus -31.2449 3.35284 -89.7569
rradius 39.0635
rwrist -7.96366
rhand -20.6482 -9.11192
rfingers 7.12502
rthumb 5.71403 -39.0149
lclavicle -2.78299e-015 -2.38542e-014
lhumerus -31.1042 -2.60233 86.6596
lradius 31.4341
lwrist 27.9944
lhand -19.2216 11.2163
lfingers 7.12502
lthumb 7.09129 41.0775
rfemur -53.4842 4.69798 20.5133
rtibia 33.4874
rfoot -18.2978 -13.4798
rtoes 16.9497
lfemur -46.7701 10.4526 -23.5838
ltibia 19.4955
lfoot -4.44988 -2.03869
ltoes -6.40404
56
root -40.8875 17.403 -4.96912 -108.801 84.978 -141.898
lowerback 19.7077 -1.03094 2.87018
upperback 4.66161 -0.479031 0.166002
thorax -6.00302 -0.151861 -1.35134
lowerneck 3.66116 -0.917651 1.47346
upperneck -15.362 -0.415329 3.23287
head -5.21902 -0.387199 0.775112
rclavicle -1.90833e-014 -1.55052e-014
rhumerus -31.3204 3.30003 -89.8029
rradius 38.9769
rwrist -7.86995
rhand -20.6367 -9.12307
rfingers 7.12502
rthumb 5.72508 -39.0257
lclavicle -1.90833e-014 -1.55052e-014
lhumerus -31.1398 -2.686 86.7332
lradius 31.3948
lwrist 28.0377
lhand -19.2267 11.1934
lfingers 7.12502
lthumb 7.08631 41.0548
rfemur -53.4724 4.6807 20.5261
rtibia 33.4867
rfoot -18.3097 -13.4966
rtoes 16.8664
lfemur -46.7545 10.4218 -23.5633
ltibia 19.484
lfoot -4.4563 -2.02589
ltoes -6.46449
57
root -40.8796 17.404 -4.96686 -109.141 84.9594 -142.261
lowerback 19.74 -1.03334 2.91587
upperback 4.63173 -0.474369 0.144698
thorax -6.05256 -0.151747 -1.4011
lowerneck 3.68236 -0.922126 1.51942
upperneck -15.3486 -0.421833 3.20543
head -5.21877 -0.391561 0.759394
rclavicle -2.3059e-014 -2.16675e-014
rhumerus -31.4139 3.2182 -89.8548
rradius 38.8991
rwrist -7.78022
rhand -20.6238 -9.12648
rfingers 7.12502
rthumb 5.73753 -39.0288
lclavicle -2.3059e-014 -2.16675e-014
lhumerus -31.198 -2.79145 86.799
lradius 31.3677
lwrist 28.0845
lhand -19.2263 11.174
lfingers 7.12502
lthumb 7.08668 41.0354
rfemur -53.4666 4.65316 20.5406
rtibia 33.4894
rfoot -18.3186 -13.5127
rtoes 16.7735
lfemur -46.7421 10.3841 -23.5454
ltibia 19.4711
lfoot -4.4519 -2.00745
ltoes -6.45698
58
root -40.8716 17.4047 -4.96451 -109.44 84.9424 -142.582
lowerback 19.7639 -1.04002 2.95788
upperback 4.59599 -0.476423 0.126337
thorax -6.10427 -0.15514 -1.44399
lowerneck 3.70176 -0.920929 1.54959
upperneck -15.3317 -0.421143 3.18503
head -5.21711 -0.391893 0.748053
rclavicle -2.42517e-014 -2.16675e-014
rhumerus -31.5083 3.14503 -89.904
rradius 38.8233
rwrist -7.70336
rhand -20.6134 -9.12812
rfingers 7.12502
rthumb 5.74759 -39.0302
lclavicle -2.42517e-014 -2.16675e-014
lhumerus -31.2662 -2.87462 86.8632
lradius 31.3488
lwrist 28.1191
lhand -19.2236 11.1557
lfingers 7.12502
lthumb 7.0893 41.0169
rfemur -53.464 4.63731 20.5508
rtibia 33.4955
rfoot -18.3302 -13.5401
rtoes 16.675
lfemur -46.7301 10.3507 -23.5276
ltibia 19.4578
lfoot -4.44018 -1.98679
ltoes -6.42868
59
root -40.8634 17.405 -4.96178 -109.609 84.9273 -142.778
lowerback 19.7701 -1.04557 2.98813
upperback 4.55605 -0.479914 0.114695
thorax -6.15111 -0.159269 -1.47266
lowerneck 3.7186 -0.915317 1.56987
upperneck -15.3112 -0.415366 3.16593
head -5.21386 -0.3892 0.738439
rclavicle -1.59028e-014 -3.18055e-014
rhumerus -31.6034 3.08116 -89.9463
rradius 38.7547
rwrist -7.64641
rhand -20.5989 -9.12987
rfingers 7.12502
rthumb 5.76165 -39.0315
lclavicle -1.59028e-014 -3.18055e-014
lhumerus -31.3416 -2.93004 86.9261
lradius 31.3407
lwrist 28.1393
lhand -19.2079 11.1423
lfingers 7.12502
lthumb 7.10447 41.003
rfemur -53.4697 4.65603 20.5505
rtibia 33.5036
rfoot -18.3505 -13.5925
rtoes 16.572
lfemur -46.7263 10.3302 -23.5064
ltibia 19.4462
lfoot -4.41354 -1.96135
ltoes -6.29747
60
root -40.8551 17.4054 -4.95922 -109.805 84.9095 -142.999
lowerback 19.7616 -1.05854 3.00602
upperback 4.51919 -0.494978 0.116983
thorax -6.18726 -0.168566 -1.47654
lowerneck 3.72955 -0.900462 1.56468
upperneck -15.2935 -0.398827 3.1492
head -5.21038 -0.379837 0.733151
rclavicle 1.11319e-014 -5.36719e-015
rhumerus -31.6865 3.04985 -89.9746
rradius 38.6883
rwrist -7.60915
rhand -20.588 -9.13889
rfingers 7.12502
rthumb 5.77211 -39.0403
lclavicle 1.11319e-014 -5.36719e-015
lhumerus -31.4144 -2.93876 86.9951
lradius 31.3427
lwrist 28.1416
lhand -19.1759 11.1431
lfingers 7.12502
lthumb 7.1354 41.0028
rfemur -53.4737 4.65818 20.5603
rtibia 33.5144
rfoot -18.3645 -13.6325
rtoes 16.4549
lfemur -46.7207 10.3058 -23.4841
ltibia 19.4349
lfoot -4.38596 -1.93487
ltoes -6.16465
61
root -40.8466 17.4058 -4.9566 -110.015 84.8889 -143.229
lowerback 19.7398 -1.07177 3.01059
upperback 4.48748 -0.51247 0.131824
thorax -6.21066 -0.178486 -1.45883
lowerneck 3.73863 -0.881978 1.5473
upperneck -15.2839 -0.378306 3.13039
head -5.20905 -0.367687 0.729026
rclavicle -2.3059e-014 -1.41137e-014
rhumerus -31.7595 3.03145 -89.9865
rradius 38.6242
rwrist -7.59116
rhand -20.5876 -9.13845
rfingers 7.12502
rthumb 5.77251 -39.0398
lclavicle -2.3059e-014 -1.41137e-014
lhumerus -31.4785 -2.92426 87.0741
lradius 31.3503
lwrist 28.1367
lhand -19.1349 11.1538
lfingers 7.12502
lthumb 7.17491 41.0122
rfemur -53.4717 4.65462 20.5763
rtibia 33.5281
rfoot -18.3753 -13.6672
rtoes 16.328
lfemur -46.7073 10.2811 -23.458
ltibia 19.4218
lfoot -4.36114 -1.91346
ltoes -6.06108
62
root -40.8384 17.4063 -4.95372 -110.379 84.8637 -143.62
lowerback 19.6973 -1.08488 3.00552
upperback 4.45704 -0.531974 0.155076
thorax -6.2217 -0.189061 -1.4262
lowerneck 3.7451 -0.865933 1.53411
upperneck -15.2851 -0.361513 3.10246
head -5.21061 -0.357015 0.721611
rclavicle 2.3059e-014 1.33186e-014
rhumerus -31.8226 3.00596 -89.9812
rradius 38.5608
rwrist -7.58859
rhand -20.5945 -9.12706
rfingers 7.12502
rthumb 5.76581 -39.0286
lclavicle 2.3059e-014 1.33186e-014
lhumerus -31.5314 -2.90585 87.1618
lradius 31.3614
lwrist 28.1295
lhand -19.0858 11.1677
lfingers 7.12502
lthumb 7.22235 41.0244
rfemur -53.4778 4.6525 20.579
rtibia 33.5446
rfoot -18.3894 -13.717
rtoes 16.2038
lfemur -46.6991 10.2404 -23.4339
ltibia 19.4049
lfoot -4.34384 -1.89681
ltoes -5.99553
63
root -40.8302 17.407 -4.95056 -110.907 84.8317 -144.175
lowerback 19.6425 -1.09634 2.99865
upperback 4.42447 -0.55008 0.181613
thorax -6.22834 -0.198963 -1.38941
lowerneck 3.76837 -0.856297 1.53273
upperneck -15.3088 -0.35152 3.07045
head -5.22208 -0.350406 0.711526
rclavicle 6.75868e-015 1.55052e-014
rhumerus -31.8867 2.95933 -89.9635
rradius 38.4967
rwrist -7.59567
rhand -20.6139 -9.10249
rfingers 7.12502
rthumb 5.74708 -39.0046
lclavicle 6.75868e-015 1.55052e-014
lhumerus -31.5785 -2.89975 87.2547
lradius 31.3709
lwrist 28.1271
lhand -19.0319 11.1701
lfingers 7.12502
lthumb 7.27435 41.0251
rfemur -53.4846 4.65185 20.57
rtibia 33.5628
rfoot -18.4078 -13.7836
rtoes 16.0795
lfemur -46.6899 10.1838 -23.4087
ltibia 19.385
lfoot -4.33105 -1.8885
ltoes -5.98913
